<?xml version="1.0" standalone="no"?>
<!DOCTYPE svg PUBLIC "-//W3C//DTD SVG 20010904//EN"
 "http://www.w3.org/TR/2001/REC-SVG-20010904/DTD/svg10.dtd">
<svg version="1.0" xmlns="http://www.w3.org/2000/svg"
 width="1024.000000pt" height="1024.000000pt" viewBox="0 0 1024.000000 1024.000000"
 preserveAspectRatio="xMidYMid meet">

<g transform="translate(0.000000,1024.000000) scale(0.100000,-0.100000)"
fill="#000000" stroke="none">
<path d="M4844 8187 c-142 -84 -398 -237 -569 -338 -170 -102 -377 -225 -460
-274 -82 -48 -381 -225 -663 -393 l-513 -305 58 -35 c77 -46 1117 -640 1353
-772 213 -119 873 -493 972 -551 36 -21 71 -39 77 -39 9 0 634 373 1726 1030
231 139 485 291 563 337 l144 85 -189 107 c-103 59 -296 170 -428 247 -132 78
-328 192 -435 254 -107 62 -316 186 -465 275 -394 236 -890 525 -902 525 -5 0
-126 -69 -269 -153z m612 -434 c175 -102 398 -232 494 -288 96 -56 225 -131
285 -168 61 -36 222 -130 359 -209 138 -80 251 -149 253 -154 2 -5 -45 -39
-104 -75 -404 -247 -1550 -935 -1611 -968 -20 -11 -38 -3 -170 70 -343 191
-889 502 -916 522 -18 13 -6 22 155 117 96 57 305 181 464 275 160 95 333 197
386 228 l96 56 209 -115 c115 -64 272 -151 349 -194 187 -105 207 -113 290
-114 63 -1 80 3 145 36 41 20 95 56 119 78 l45 41 -41 24 c-23 12 -61 36 -85
53 -37 25 -137 84 -583 340 -184 105 -446 252 -451 252 -8 0 -398 -229 -954
-560 -256 -152 -485 -288 -510 -302 l-45 -26 -157 92 c-87 50 -158 94 -158 97
0 8 -12 0 555 334 231 137 474 280 540 320 66 40 199 118 295 175 96 57 229
136 295 176 66 40 123 73 126 73 3 1 150 -83 325 -186z"/>
<path d="M2540 6621 c-124 -38 -203 -138 -203 -256 0 -145 126 -265 277 -265
31 0 65 -13 136 -53 52 -29 412 -232 800 -451 613 -347 1464 -822 1555 -869
30 -15 32 -14 110 33 180 107 1040 619 1165 693 74 44 243 144 375 222 132 78
319 188 415 245 96 56 217 128 268 160 l94 58 40 -14 c93 -32 190 -10 260 61
55 55 78 110 78 182 0 150 -142 277 -290 260 -94 -11 -174 -68 -216 -153 -16
-33 -38 -61 -54 -69 -70 -36 -1196 -697 -1830 -1074 l-405 -240 -35 21 c-76
46 -576 330 -750 428 -457 255 -1227 690 -1359 769 -100 60 -100 59 -126 136
-42 121 -195 209 -305 176z"/>
<path d="M2515 5837 c-100 -39 -165 -117 -180 -218 -14 -95 45 -206 139 -259
43 -25 62 -30 120 -30 l69 0 186 -107 c102 -58 236 -134 296 -168 61 -34 151
-87 200 -117 137 -83 518 -294 720 -398 204 -106 533 -287 865 -475 124 -70
230 -128 235 -128 10 0 125 67 750 438 324 193 909 532 1355 787 l295 168 75
0 c117 1 199 51 251 153 33 64 30 158 -7 227 -111 205 -404 179 -482 -44 -9
-26 -26 -55 -37 -63 -11 -7 -247 -143 -525 -302 -278 -158 -638 -366 -800
-461 -162 -95 -414 -242 -560 -327 -146 -86 -277 -164 -292 -174 -14 -11 -31
-19 -37 -19 -6 0 -140 73 -299 163 -158 90 -343 194 -412 232 -69 38 -289 161
-490 273 -201 113 -471 263 -600 334 -490 272 -478 264 -491 311 -26 96 -80
161 -166 198 -50 21 -131 24 -178 6z"/>
<path d="M2519 5124 c-59 -18 -131 -81 -160 -141 -30 -62 -31 -151 -2 -214 44
-97 151 -169 253 -169 49 0 66 -7 150 -56 93 -55 322 -185 685 -387 235 -131
745 -419 1510 -855 121 -69 225 -125 230 -125 6 0 73 37 150 83 252 150 957
571 1080 645 165 100 479 284 730 430 116 67 264 154 329 194 90 53 129 71
156 71 20 0 61 7 91 16 74 22 157 106 182 184 48 152 -66 317 -232 337 -64 7
-142 -19 -194 -66 -41 -37 -87 -119 -87 -158 0 -52 35 -28 -480 -328 -272
-159 -433 -253 -805 -473 -60 -36 -146 -86 -190 -112 -44 -26 -177 -104 -295
-175 -118 -70 -268 -159 -332 -197 l-117 -68 -268 153 c-148 85 -365 207 -483
272 -432 238 -1299 725 -1469 826 -73 43 -74 45 -91 104 -9 33 -24 74 -33 91
-26 49 -91 101 -148 118 -63 19 -99 19 -160 0z"/>
<path d="M2524 4359 c-54 -15 -127 -72 -157 -120 -75 -122 -26 -295 102 -361
44 -23 66 -28 125 -28 65 0 78 -4 132 -36 32 -20 167 -97 299 -172 786 -445
1326 -753 1700 -969 105 -60 251 -145 325 -188 74 -42 140 -81 145 -85 6 -4
366 206 800 467 435 261 855 512 935 558 80 46 269 157 422 248 232 138 284
165 327 170 143 17 256 154 236 286 -14 94 -64 165 -145 206 -68 34 -110 39
-173 21 -95 -28 -168 -108 -203 -225 -12 -41 -20 -49 -76 -80 -35 -19 -184
-106 -333 -194 -148 -88 -396 -234 -550 -325 -154 -91 -451 -267 -660 -392
-442 -263 -590 -350 -598 -350 -3 0 -97 53 -209 118 -1052 613 -1153 672
-1688 972 -436 246 -421 235 -444 301 -45 130 -191 213 -312 178z"/>
</g>
</svg>
